<svg xmlns="http://www.w3.org/2000/svg" xmlns:xlink="http://www.w3.org/1999/xlink" width="500" zoomAndPan="magnify" viewBox="0 0 375 374.999991" height="500" preserveAspectRatio="xMidYMid meet" version="1.0"><defs><g/><clipPath id="0d1e97ae3d"><path d="M 90.003906 90.003906 L 284.996094 90.003906 L 284.996094 284.996094 L 90.003906 284.996094 Z M 90.003906 90.003906 " clip-rule="nonzero"/></clipPath><clipPath id="c78b36baf6"><path d="M 187.5 90.003906 C 133.65625 90.003906 90.003906 133.65625 90.003906 187.5 C 90.003906 241.34375 133.65625 284.996094 187.5 284.996094 C 241.34375 284.996094 284.996094 241.34375 284.996094 187.5 C 284.996094 133.65625 241.34375 90.003906 187.5 90.003906 Z M 187.5 90.003906 " clip-rule="nonzero"/></clipPath><clipPath id="d590a3257e"><path d="M 236.828125 214.34375 L 258.90625 214.34375 L 258.90625 237.714844 L 236.828125 237.714844 Z M 236.828125 214.34375 " clip-rule="nonzero"/></clipPath><clipPath id="2c0a2a7c46"><path d="M 247.867188 214.34375 C 241.769531 214.34375 236.828125 219.566406 236.828125 226.011719 C 236.828125 232.457031 241.769531 237.679688 247.867188 237.679688 C 253.964844 237.679688 258.90625 232.457031 258.90625 226.011719 C 258.90625 219.566406 253.964844 214.34375 247.867188 214.34375 Z M 247.867188 214.34375 " clip-rule="nonzero"/></clipPath></defs><g clip-path="url(#0d1e97ae3d)"><g clip-path="url(#c78b36baf6)"><path fill="#2e2e2e" d="M 90.003906 90.003906 L 284.996094 90.003906 L 284.996094 284.996094 L 90.003906 284.996094 Z M 90.003906 90.003906 " fill-opacity="1" fill-rule="nonzero"/></g></g><g fill="#ededed" fill-opacity="1"><g transform="translate(110.210844, 234.526478)"><g><path d="M 45.625 -44.40625 L 81.453125 0 L 66.734375 0 L 38.6875 -34.734375 L 11.578125 2.171875 L 11.578125 -88.671875 L 23.15625 -88.671875 L 23.15625 -32.6875 L 64.015625 -88.671875 L 78.046875 -88.671875 Z M 45.625 -44.40625 "/></g></g></g><g fill="#ededed" fill-opacity="1"><g transform="translate(171.49314, 234.526478)"><g><path d="M 18.390625 -88.671875 L 46.4375 -25.875 L 74.5 -88.671875 L 87.03125 -88.671875 L 46.4375 2.171875 L 6 -88.671875 Z M 18.390625 -88.671875 "/></g></g></g><g clip-path="url(#d590a3257e)"><g clip-path="url(#2c0a2a7c46)"><path fill="#ff3366" d="M 236.828125 214.34375 L 258.90625 214.34375 L 258.90625 237.714844 L 236.828125 237.714844 Z M 236.828125 214.34375 " fill-opacity="1" fill-rule="nonzero"/></g></g></svg>