<svg xmlns="http://www.w3.org/2000/svg" xmlns:xlink="http://www.w3.org/1999/xlink" width="500" zoomAndPan="magnify" viewBox="0 0 375 374.999991" height="500" preserveAspectRatio="xMidYMid meet" version="1.0"><defs><g/><clipPath id="494f604469"><path d="M 236.828125 214.34375 L 258.90625 214.34375 L 258.90625 237.714844 L 236.828125 237.714844 Z M 236.828125 214.34375 " clip-rule="nonzero"/></clipPath><clipPath id="d3f5aad7e6"><path d="M 247.867188 214.34375 C 241.769531 214.34375 236.828125 219.566406 236.828125 226.011719 C 236.828125 232.457031 241.769531 237.679688 247.867188 237.679688 C 253.964844 237.679688 258.90625 232.457031 258.90625 226.011719 C 258.90625 219.566406 253.964844 214.34375 247.867188 214.34375 Z M 247.867188 214.34375 " clip-rule="nonzero"/></clipPath></defs><g fill="#2e2e2e" fill-opacity="1"><g transform="translate(88.517281, 236.102212)"><g><path d="M 53.1875 -51.75 L 94.9375 0 L 77.78125 0 L 45.078125 -40.484375 L 13.5 2.546875 L 13.5 -103.34375 L 26.984375 -103.34375 L 26.984375 -38.09375 L 74.609375 -103.34375 L 90.96875 -103.34375 Z M 53.1875 -51.75 "/></g></g></g><g fill="#2e2e2e" fill-opacity="1"><g transform="translate(159.947886, 236.102212)"><g><path d="M 21.4375 -103.34375 L 54.140625 -30.15625 L 86.84375 -103.34375 L 101.4375 -103.34375 L 54.140625 2.546875 L 6.984375 -103.34375 Z M 21.4375 -103.34375 "/></g></g></g><g fill="#2e2e2e" fill-opacity="1"><g transform="translate(236.93524, 236.102212)"><g/></g></g><g clip-path="url(#494f604469)"><g clip-path="url(#d3f5aad7e6)"><path fill="#ff3366" d="M 236.828125 214.34375 L 258.90625 214.34375 L 258.90625 237.714844 L 236.828125 237.714844 Z M 236.828125 214.34375 " fill-opacity="1" fill-rule="nonzero"/></g></g></svg>